<svg width="739" height="584" viewBox="0 0 739 584" fill="none" xmlns="http://www.w3.org/2000/svg">
<rect width="739" height="584" fill="white"/>
<rect x="72" width="667" height="584" fill="#ECECEC"/>
<rect y="63" width="1" height="5" fill="#C4C4C4"/>
<path d="M364.77 74.7891H359.285V90H357.047V74.7891H351.574V72.9375H364.77V74.7891ZM365.215 83.543C365.215 82.3008 365.457 81.1836 365.941 80.1914C366.434 79.1992 367.113 78.4336 367.98 77.8945C368.855 77.3555 369.852 77.0859 370.969 77.0859C372.695 77.0859 374.09 77.6836 375.152 78.8789C376.223 80.0742 376.758 81.6641 376.758 83.6484V83.8008C376.758 85.0352 376.52 86.1445 376.043 87.1289C375.574 88.1055 374.898 88.8672 374.016 89.4141C373.141 89.9609 372.133 90.2344 370.992 90.2344C369.273 90.2344 367.879 89.6367 366.809 88.4414C365.746 87.2461 365.215 85.6641 365.215 83.6953V83.543ZM367.395 83.8008C367.395 85.207 367.719 86.3359 368.367 87.1875C369.023 88.0391 369.898 88.4648 370.992 88.4648C372.094 88.4648 372.969 88.0352 373.617 87.1758C374.266 86.3086 374.59 85.0977 374.59 83.543C374.59 82.1523 374.258 81.0273 373.594 80.168C372.938 79.3008 372.062 78.8672 370.969 78.8672C369.898 78.8672 369.035 79.293 368.379 80.1445C367.723 80.9961 367.395 82.2148 367.395 83.8008ZM378.949 83.5547C378.949 81.6094 379.41 80.0469 380.332 78.8672C381.254 77.6797 382.461 77.0859 383.953 77.0859C385.438 77.0859 386.613 77.5938 387.48 78.6094V72H389.648V90H387.656L387.551 88.6406C386.684 89.7031 385.477 90.2344 383.93 90.2344C382.461 90.2344 381.262 89.6328 380.332 88.4297C379.41 87.2266 378.949 85.6562 378.949 83.7188V83.5547ZM381.117 83.8008C381.117 85.2383 381.414 86.3633 382.008 87.1758C382.602 87.9883 383.422 88.3945 384.469 88.3945C385.844 88.3945 386.848 87.7773 387.48 86.543V80.7188C386.832 79.5234 385.836 78.9258 384.492 78.9258C383.43 78.9258 382.602 79.3359 382.008 80.1562C381.414 80.9766 381.117 82.1914 381.117 83.8008ZM392.449 83.543C392.449 82.3008 392.691 81.1836 393.176 80.1914C393.668 79.1992 394.348 78.4336 395.215 77.8945C396.09 77.3555 397.086 77.0859 398.203 77.0859C399.93 77.0859 401.324 77.6836 402.387 78.8789C403.457 80.0742 403.992 81.6641 403.992 83.6484V83.8008C403.992 85.0352 403.754 86.1445 403.277 87.1289C402.809 88.1055 402.133 88.8672 401.25 89.4141C400.375 89.9609 399.367 90.2344 398.227 90.2344C396.508 90.2344 395.113 89.6367 394.043 88.4414C392.98 87.2461 392.449 85.6641 392.449 83.6953V83.543ZM394.629 83.8008C394.629 85.207 394.953 86.3359 395.602 87.1875C396.258 88.0391 397.133 88.4648 398.227 88.4648C399.328 88.4648 400.203 88.0352 400.852 87.1758C401.5 86.3086 401.824 85.0977 401.824 83.543C401.824 82.1523 401.492 81.0273 400.828 80.168C400.172 79.3008 399.297 78.8672 398.203 78.8672C397.133 78.8672 396.27 79.293 395.613 80.1445C394.957 80.9961 394.629 82.2148 394.629 83.8008Z" fill="#4F87A7"/>
<rect x="229" y="197" width="340" height="325" fill="#4F87A7" fill-opacity="0.43"/>
<rect x="259.5" y="138.5" width="145" height="27" fill="white" stroke="#4F87A7" stroke-width="3"/>
<rect x="426" y="141" width="68" height="23" fill="white"/>
<path d="M454.701 153.773H451.127L450.324 156H449.164L452.422 147.469H453.406L456.67 156H455.516L454.701 153.773ZM451.467 152.848H454.367L452.914 148.857L451.467 152.848ZM457.385 152.777C457.385 151.805 457.615 151.023 458.076 150.434C458.537 149.84 459.141 149.543 459.887 149.543C460.629 149.543 461.217 149.797 461.65 150.305V147H462.734V156H461.738L461.686 155.32C461.252 155.852 460.648 156.117 459.875 156.117C459.141 156.117 458.541 155.816 458.076 155.215C457.615 154.613 457.385 153.828 457.385 152.859V152.777ZM458.469 152.9C458.469 153.619 458.617 154.182 458.914 154.588C459.211 154.994 459.621 155.197 460.145 155.197C460.832 155.197 461.334 154.889 461.65 154.271V151.359C461.326 150.762 460.828 150.463 460.156 150.463C459.625 150.463 459.211 150.668 458.914 151.078C458.617 151.488 458.469 152.096 458.469 152.9ZM464.158 152.777C464.158 151.805 464.389 151.023 464.85 150.434C465.311 149.84 465.914 149.543 466.66 149.543C467.402 149.543 467.99 149.797 468.424 150.305V147H469.508V156H468.512L468.459 155.32C468.025 155.852 467.422 156.117 466.648 156.117C465.914 156.117 465.314 155.816 464.85 155.215C464.389 154.613 464.158 153.828 464.158 152.859V152.777ZM465.242 152.9C465.242 153.619 465.391 154.182 465.688 154.588C465.984 154.994 466.395 155.197 466.918 155.197C467.605 155.197 468.107 154.889 468.424 154.271V151.359C468.1 150.762 467.602 150.463 466.93 150.463C466.398 150.463 465.984 150.668 465.688 151.078C465.391 151.488 465.242 152.096 465.242 152.9Z" fill="black"/>
<path d="M276.327 240.592H272.214V252H270.535V240.592H266.431V239.203H276.327V240.592ZM276.661 247.157C276.661 246.226 276.843 245.388 277.206 244.644C277.575 243.899 278.085 243.325 278.735 242.921C279.392 242.517 280.139 242.314 280.977 242.314C282.271 242.314 283.317 242.763 284.114 243.659C284.917 244.556 285.318 245.748 285.318 247.236V247.351C285.318 248.276 285.14 249.108 284.782 249.847C284.431 250.579 283.924 251.15 283.262 251.561C282.605 251.971 281.85 252.176 280.994 252.176C279.705 252.176 278.659 251.728 277.856 250.831C277.06 249.935 276.661 248.748 276.661 247.271V247.157ZM278.296 247.351C278.296 248.405 278.539 249.252 279.025 249.891C279.518 250.529 280.174 250.849 280.994 250.849C281.82 250.849 282.477 250.526 282.963 249.882C283.449 249.231 283.692 248.323 283.692 247.157C283.692 246.114 283.443 245.271 282.945 244.626C282.453 243.976 281.797 243.65 280.977 243.65C280.174 243.65 279.526 243.97 279.034 244.608C278.542 245.247 278.296 246.161 278.296 247.351ZM286.962 247.166C286.962 245.707 287.308 244.535 287.999 243.65C288.69 242.76 289.596 242.314 290.715 242.314C291.828 242.314 292.71 242.695 293.36 243.457V238.5H294.986V252H293.492L293.413 250.98C292.763 251.777 291.857 252.176 290.697 252.176C289.596 252.176 288.696 251.725 287.999 250.822C287.308 249.92 286.962 248.742 286.962 247.289V247.166ZM288.588 247.351C288.588 248.429 288.811 249.272 289.256 249.882C289.701 250.491 290.316 250.796 291.102 250.796C292.133 250.796 292.886 250.333 293.36 249.407V245.039C292.874 244.143 292.127 243.694 291.119 243.694C290.322 243.694 289.701 244.002 289.256 244.617C288.811 245.232 288.588 246.144 288.588 247.351ZM297.087 247.157C297.087 246.226 297.269 245.388 297.632 244.644C298.001 243.899 298.511 243.325 299.161 242.921C299.817 242.517 300.564 242.314 301.402 242.314C302.697 242.314 303.743 242.763 304.54 243.659C305.343 244.556 305.744 245.748 305.744 247.236V247.351C305.744 248.276 305.565 249.108 305.208 249.847C304.856 250.579 304.35 251.15 303.688 251.561C303.031 251.971 302.275 252.176 301.42 252.176C300.131 252.176 299.085 251.728 298.282 250.831C297.485 249.935 297.087 248.748 297.087 247.271V247.157ZM298.722 247.351C298.722 248.405 298.965 249.252 299.451 249.891C299.943 250.529 300.6 250.849 301.42 250.849C302.246 250.849 302.902 250.526 303.389 249.882C303.875 249.231 304.118 248.323 304.118 247.157C304.118 246.114 303.869 245.271 303.371 244.626C302.879 243.976 302.223 243.65 301.402 243.65C300.6 243.65 299.952 243.97 299.46 244.608C298.968 245.247 298.722 246.161 298.722 247.351ZM317.425 252H315.79V241.163L312.512 242.367V240.891L317.17 239.142H317.425V252Z" fill="black"/>
<path d="M277.327 348.592H273.214V360H271.535V348.592H267.431V347.203H277.327V348.592ZM277.661 355.157C277.661 354.226 277.843 353.388 278.206 352.644C278.575 351.899 279.085 351.325 279.735 350.921C280.392 350.517 281.139 350.314 281.977 350.314C283.271 350.314 284.317 350.763 285.114 351.659C285.917 352.556 286.318 353.748 286.318 355.236V355.351C286.318 356.276 286.14 357.108 285.782 357.847C285.431 358.579 284.924 359.15 284.262 359.561C283.605 359.971 282.85 360.176 281.994 360.176C280.705 360.176 279.659 359.728 278.856 358.831C278.06 357.935 277.661 356.748 277.661 355.271V355.157ZM279.296 355.351C279.296 356.405 279.539 357.252 280.025 357.891C280.518 358.529 281.174 358.849 281.994 358.849C282.82 358.849 283.477 358.526 283.963 357.882C284.449 357.231 284.692 356.323 284.692 355.157C284.692 354.114 284.443 353.271 283.945 352.626C283.453 351.976 282.797 351.65 281.977 351.65C281.174 351.65 280.526 351.97 280.034 352.608C279.542 353.247 279.296 354.161 279.296 355.351ZM287.962 355.166C287.962 353.707 288.308 352.535 288.999 351.65C289.69 350.76 290.596 350.314 291.715 350.314C292.828 350.314 293.71 350.695 294.36 351.457V346.5H295.986V360H294.492L294.413 358.98C293.763 359.777 292.857 360.176 291.697 360.176C290.596 360.176 289.696 359.725 288.999 358.822C288.308 357.92 287.962 356.742 287.962 355.289V355.166ZM289.588 355.351C289.588 356.429 289.811 357.272 290.256 357.882C290.701 358.491 291.316 358.796 292.102 358.796C293.133 358.796 293.886 358.333 294.36 357.407V353.039C293.874 352.143 293.127 351.694 292.119 351.694C291.322 351.694 290.701 352.002 290.256 352.617C289.811 353.232 289.588 354.144 289.588 355.351ZM298.087 355.157C298.087 354.226 298.269 353.388 298.632 352.644C299.001 351.899 299.511 351.325 300.161 350.921C300.817 350.517 301.564 350.314 302.402 350.314C303.697 350.314 304.743 350.763 305.54 351.659C306.343 352.556 306.744 353.748 306.744 355.236V355.351C306.744 356.276 306.565 357.108 306.208 357.847C305.856 358.579 305.35 359.15 304.688 359.561C304.031 359.971 303.275 360.176 302.42 360.176C301.131 360.176 300.085 359.728 299.282 358.831C298.485 357.935 298.087 356.748 298.087 355.271V355.157ZM299.722 355.351C299.722 356.405 299.965 357.252 300.451 357.891C300.943 358.529 301.6 358.849 302.42 358.849C303.246 358.849 303.902 358.526 304.389 357.882C304.875 357.231 305.118 356.323 305.118 355.157C305.118 354.114 304.869 353.271 304.371 352.626C303.879 351.976 303.223 351.65 302.402 351.65C301.6 351.65 300.952 351.97 300.46 352.608C299.968 353.247 299.722 354.161 299.722 355.351ZM319.945 355.702H321.721V357.029H319.945V360H318.311V357.029H312.483V356.071L318.214 347.203H319.945V355.702ZM314.329 355.702H318.311V349.427L318.117 349.778L314.329 355.702Z" fill="black"/>
<path d="M276.327 312.592H272.214V324H270.535V312.592H266.431V311.203H276.327V312.592ZM276.661 319.157C276.661 318.226 276.843 317.388 277.206 316.644C277.575 315.899 278.085 315.325 278.735 314.921C279.392 314.517 280.139 314.314 280.977 314.314C282.271 314.314 283.317 314.763 284.114 315.659C284.917 316.556 285.318 317.748 285.318 319.236V319.351C285.318 320.276 285.14 321.108 284.782 321.847C284.431 322.579 283.924 323.15 283.262 323.561C282.605 323.971 281.85 324.176 280.994 324.176C279.705 324.176 278.659 323.728 277.856 322.831C277.06 321.935 276.661 320.748 276.661 319.271V319.157ZM278.296 319.351C278.296 320.405 278.539 321.252 279.025 321.891C279.518 322.529 280.174 322.849 280.994 322.849C281.82 322.849 282.477 322.526 282.963 321.882C283.449 321.231 283.692 320.323 283.692 319.157C283.692 318.114 283.443 317.271 282.945 316.626C282.453 315.976 281.797 315.65 280.977 315.65C280.174 315.65 279.526 315.97 279.034 316.608C278.542 317.247 278.296 318.161 278.296 319.351ZM286.962 319.166C286.962 317.707 287.308 316.535 287.999 315.65C288.69 314.76 289.596 314.314 290.715 314.314C291.828 314.314 292.71 314.695 293.36 315.457V310.5H294.986V324H293.492L293.413 322.98C292.763 323.777 291.857 324.176 290.697 324.176C289.596 324.176 288.696 323.725 287.999 322.822C287.308 321.92 286.962 320.742 286.962 319.289V319.166ZM288.588 319.351C288.588 320.429 288.811 321.272 289.256 321.882C289.701 322.491 290.316 322.796 291.102 322.796C292.133 322.796 292.886 322.333 293.36 321.407V317.039C292.874 316.143 292.127 315.694 291.119 315.694C290.322 315.694 289.701 316.002 289.256 316.617C288.811 317.232 288.588 318.144 288.588 319.351ZM297.087 319.157C297.087 318.226 297.269 317.388 297.632 316.644C298.001 315.899 298.511 315.325 299.161 314.921C299.817 314.517 300.564 314.314 301.402 314.314C302.697 314.314 303.743 314.763 304.54 315.659C305.343 316.556 305.744 317.748 305.744 319.236V319.351C305.744 320.276 305.565 321.108 305.208 321.847C304.856 322.579 304.35 323.15 303.688 323.561C303.031 323.971 302.275 324.176 301.42 324.176C300.131 324.176 299.085 323.728 298.282 322.831C297.485 321.935 297.087 320.748 297.087 319.271V319.157ZM298.722 319.351C298.722 320.405 298.965 321.252 299.451 321.891C299.943 322.529 300.6 322.849 301.42 322.849C302.246 322.849 302.902 322.526 303.389 321.882C303.875 321.231 304.118 320.323 304.118 319.157C304.118 318.114 303.869 317.271 303.371 316.626C302.879 315.976 302.223 315.65 301.402 315.65C300.6 315.65 299.952 315.97 299.46 316.608C298.968 317.247 298.722 318.161 298.722 319.351ZM314.445 316.811H315.667C316.435 316.799 317.038 316.597 317.478 316.204C317.917 315.812 318.137 315.281 318.137 314.613C318.137 313.113 317.39 312.363 315.896 312.363C315.192 312.363 314.63 312.565 314.208 312.97C313.792 313.368 313.584 313.898 313.584 314.561H311.958C311.958 313.547 312.327 312.706 313.065 312.038C313.81 311.364 314.753 311.027 315.896 311.027C317.103 311.027 318.049 311.347 318.734 311.985C319.42 312.624 319.763 313.512 319.763 314.648C319.763 315.205 319.581 315.744 319.218 316.266C318.86 316.787 318.371 317.177 317.75 317.435C318.453 317.657 318.995 318.026 319.376 318.542C319.763 319.058 319.956 319.688 319.956 320.432C319.956 321.58 319.581 322.491 318.831 323.165C318.081 323.839 317.105 324.176 315.904 324.176C314.703 324.176 313.725 323.851 312.969 323.2C312.219 322.55 311.844 321.691 311.844 320.625H313.479C313.479 321.299 313.698 321.838 314.138 322.242C314.577 322.646 315.166 322.849 315.904 322.849C316.689 322.849 317.29 322.644 317.706 322.233C318.122 321.823 318.33 321.234 318.33 320.467C318.33 319.723 318.102 319.151 317.645 318.753C317.188 318.354 316.528 318.149 315.667 318.138H314.445V316.811Z" fill="black"/>
<path d="M276.327 276.592H272.214V288H270.535V276.592H266.431V275.203H276.327V276.592ZM276.661 283.157C276.661 282.226 276.843 281.388 277.206 280.644C277.575 279.899 278.085 279.325 278.735 278.921C279.392 278.517 280.139 278.314 280.977 278.314C282.271 278.314 283.317 278.763 284.114 279.659C284.917 280.556 285.318 281.748 285.318 283.236V283.351C285.318 284.276 285.14 285.108 284.782 285.847C284.431 286.579 283.924 287.15 283.262 287.561C282.605 287.971 281.85 288.176 280.994 288.176C279.705 288.176 278.659 287.728 277.856 286.831C277.06 285.935 276.661 284.748 276.661 283.271V283.157ZM278.296 283.351C278.296 284.405 278.539 285.252 279.025 285.891C279.518 286.529 280.174 286.849 280.994 286.849C281.82 286.849 282.477 286.526 282.963 285.882C283.449 285.231 283.692 284.323 283.692 283.157C283.692 282.114 283.443 281.271 282.945 280.626C282.453 279.976 281.797 279.65 280.977 279.65C280.174 279.65 279.526 279.97 279.034 280.608C278.542 281.247 278.296 282.161 278.296 283.351ZM286.962 283.166C286.962 281.707 287.308 280.535 287.999 279.65C288.69 278.76 289.596 278.314 290.715 278.314C291.828 278.314 292.71 278.695 293.36 279.457V274.5H294.986V288H293.492L293.413 286.98C292.763 287.777 291.857 288.176 290.697 288.176C289.596 288.176 288.696 287.725 287.999 286.822C287.308 285.92 286.962 284.742 286.962 283.289V283.166ZM288.588 283.351C288.588 284.429 288.811 285.272 289.256 285.882C289.701 286.491 290.316 286.796 291.102 286.796C292.133 286.796 292.886 286.333 293.36 285.407V281.039C292.874 280.143 292.127 279.694 291.119 279.694C290.322 279.694 289.701 280.002 289.256 280.617C288.811 281.232 288.588 282.144 288.588 283.351ZM297.087 283.157C297.087 282.226 297.269 281.388 297.632 280.644C298.001 279.899 298.511 279.325 299.161 278.921C299.817 278.517 300.564 278.314 301.402 278.314C302.697 278.314 303.743 278.763 304.54 279.659C305.343 280.556 305.744 281.748 305.744 283.236V283.351C305.744 284.276 305.565 285.108 305.208 285.847C304.856 286.579 304.35 287.15 303.688 287.561C303.031 287.971 302.275 288.176 301.42 288.176C300.131 288.176 299.085 287.728 298.282 286.831C297.485 285.935 297.087 284.748 297.087 283.271V283.157ZM298.722 283.351C298.722 284.405 298.965 285.252 299.451 285.891C299.943 286.529 300.6 286.849 301.42 286.849C302.246 286.849 302.902 286.526 303.389 285.882C303.875 285.231 304.118 284.323 304.118 283.157C304.118 282.114 303.869 281.271 303.371 280.626C302.879 279.976 302.223 279.65 301.402 279.65C300.6 279.65 299.952 279.97 299.46 280.608C298.968 281.247 298.722 282.161 298.722 283.351ZM320.466 288H312.081V286.831L316.511 281.909C317.167 281.165 317.618 280.562 317.864 280.099C318.116 279.63 318.242 279.146 318.242 278.648C318.242 277.98 318.04 277.433 317.636 277.005C317.231 276.577 316.692 276.363 316.019 276.363C315.21 276.363 314.58 276.595 314.129 277.058C313.684 277.515 313.461 278.153 313.461 278.974H311.835C311.835 277.796 312.213 276.844 312.969 276.117C313.73 275.391 314.747 275.027 316.019 275.027C317.208 275.027 318.148 275.341 318.84 275.968C319.531 276.589 319.877 277.418 319.877 278.455C319.877 279.715 319.074 281.215 317.469 282.955L314.041 286.673H320.466V288Z" fill="black"/>
<rect x="372" y="237" width="43" height="16" fill="#767676"/>
<rect x="372" y="344" width="43" height="16" fill="#767676"/>
<rect x="372" y="310" width="43" height="16" fill="#767676"/>
<rect x="372" y="271" width="43" height="16" fill="#767676"/>
<path d="M538.75 210H536.375V207H531.625V210H529.25V205H538.75V210Z" fill="#62808C"/>
<path d="M542.312 237H525.688C523.72 237 522.125 235.657 522.125 234V213H545.875V234C545.875 235.657 544.28 237 542.312 237Z" fill="#E76E54"/>
<path d="M548.25 215H519.75V211C519.75 209.896 520.813 209 522.125 209H545.875C547.187 209 548.25 209.896 548.25 211V215Z" fill="#77959E"/>
<path d="M539.047 221.25C538.583 220.86 537.832 220.86 537.368 221.25L534.297 223.836L531.226 221.25C530.762 220.86 530.01 220.86 529.547 221.25C529.083 221.64 529.083 222.273 529.547 222.664L532.618 225.25L529.547 227.836C529.083 228.227 529.083 228.86 529.547 229.25C530.01 229.64 530.762 229.64 531.226 229.25L534.297 226.664L537.368 229.25C537.832 229.64 538.583 229.64 539.047 229.25C539.51 228.86 539.51 228.227 539.047 227.836L535.976 225.25L539.047 222.664C539.51 222.273 539.51 221.64 539.047 221.25Z" fill="white"/>
</svg>
